<svg width="576" height="576" viewBox="0 0 576 576" fill="none" xmlns="http://www.w3.org/2000/svg">
<g id="splash">
<path id="Fill 1" fill-rule="evenodd" clip-rule="evenodd" d="M347.997 326.067C347.704 305.79 348.163 285.511 347.877 265.235C347.783 258.522 347.972 255.17 346.852 249.494C346.141 245.884 344.319 237.154 338.111 227.903C328.651 213.801 315.189 207.914 310.986 206.248C309.066 205.487 299.905 201.973 288 202C276.095 201.973 266.935 205.487 265.015 206.248C260.811 207.914 247.35 213.801 237.89 227.903C231.682 237.154 229.858 245.884 229.147 249.494C228.028 255.17 228.218 258.522 228.123 265.235C227.837 285.511 228.296 305.79 228.003 326.067C227.994 326.725 227.935 328.862 229.328 330.595C229.538 330.856 229.76 331.085 229.985 331.284C229.985 331.284 231 332.18 232.206 332.439C233.856 332.793 256.449 332.86 288 332.651C319.552 332.86 342.145 332.793 343.794 332.439C345 332.18 346.014 331.284 346.014 331.284C346.24 331.085 346.462 330.856 346.672 330.595C348.066 328.862 348.007 326.725 347.997 326.067" fill="white"/>
<path id="Fill 3" fill-rule="evenodd" clip-rule="evenodd" d="M287.231 375.846C271.537 375.846 258.769 363.365 258.769 348.024C258.769 345.547 260.823 343.538 263.357 343.538C265.891 343.538 267.945 345.547 267.945 348.024C267.945 358.419 276.597 366.876 287.231 366.876C297.865 366.876 306.516 358.419 306.516 348.024C306.516 345.547 308.57 343.538 311.103 343.538C313.638 343.538 315.692 345.547 315.692 348.024C315.692 363.365 302.924 375.846 287.231 375.846" fill="white"/>
</g>
</svg>
